<?xml version="1.0" encoding="UTF-8" standalone="no"?>
<!-- Generator: Adobe Illustrator 19.0.0, SVG Export Plug-In . SVG Version: 6.00 Build 0)  -->

<svg
   xmlns:dc="http://purl.org/dc/elements/1.1/"
   xmlns:cc="http://creativecommons.org/ns#"
   xmlns:rdf="http://www.w3.org/1999/02/22-rdf-syntax-ns#"
   xmlns:svg="http://www.w3.org/2000/svg"
   xmlns="http://www.w3.org/2000/svg"
   xmlns:sodipodi="http://sodipodi.sourceforge.net/DTD/sodipodi-0.dtd"
   xmlns:inkscape="http://www.inkscape.org/namespaces/inkscape"
   version="1.1"
   id="Layer_1"
   x="0px"
   y="0px"
   viewBox="0 0 323.904 323.904"
   xml:space="preserve"
   sodipodi:docname="cog.svg"
   width="3.3740001in"
   height="3.3740001in"
   inkscape:version="0.92.3 (2405546, 2018-03-11)"
   inkscape:export-filename="C:\Users\user\Documents\others\1-CODE\inspirations\admin\BRAD-TRAVERSY\icons\png\cog.png"
   inkscape:export-xdpi="300"
   inkscape:export-ydpi="300"><metadata
   id="metadata49"><rdf:RDF><cc:Work
       rdf:about=""><dc:format>image/svg+xml</dc:format><dc:type
         rdf:resource="http://purl.org/dc/dcmitype/StillImage" /><dc:title></dc:title></cc:Work></rdf:RDF></metadata><defs
   id="defs47" /><sodipodi:namedview
   pagecolor="#ffffff"
   bordercolor="#666666"
   borderopacity="1"
   objecttolerance="10"
   gridtolerance="10"
   guidetolerance="10"
   inkscape:pageopacity="0"
   inkscape:pageshadow="2"
   inkscape:window-width="1366"
   inkscape:window-height="706"
   id="namedview45"
   showgrid="false"
   units="in"
   inkscape:zoom="0.4609375"
   inkscape:cx="256"
   inkscape:cy="256"
   inkscape:window-x="-8"
   inkscape:window-y="-8"
   inkscape:window-maximized="1"
   inkscape:current-layer="Layer_1" />
<g
   id="g6"
   transform="translate(-189.99865,-188.0875)">
	<g
   id="g4">
		<path
   d="M 504.161,378.976 472.77,360.852 c 0.645,-7.199 0.645,-14.424 0,-21.623 l 31.391,-18.124 c 7.496,-4.328 10.064,-13.914 5.737,-21.41 l -35.373,-61.268 c -4.324,-7.491 -13.915,-10.065 -21.41,-5.737 l -31.394,18.126 c -5.915,-4.17 -12.171,-7.788 -18.724,-10.827 v -36.235 c 0,-8.656 -7.018,-15.673 -15.673,-15.673 h -70.745 c -8.656,0 -15.674,7.018 -15.674,15.673 v 36.233 c -6.552,3.04 -12.808,6.658 -18.724,10.827 l -31.394,-18.126 c -7.492,-4.325 -17.082,-1.759 -21.41,5.736 l -35.373,61.268 c -4.328,7.496 -1.76,17.082 5.736,21.41 l 31.391,18.124 c -0.645,7.199 -0.645,14.424 0,21.623 l -31.391,18.124 c -7.491,4.324 -10.064,13.915 -5.737,21.41 l 35.373,61.268 c 4.328,7.496 13.914,10.065 21.41,5.736 l 31.394,-18.125 c 5.915,4.17 12.171,7.788 18.724,10.827 v 36.236 c 0,8.656 7.018,15.673 15.673,15.673 h 70.745 c 8.656,0 15.673,-7.018 15.673,-15.673 v -36.233 c 6.553,-3.041 12.807,-6.657 18.724,-10.827 l 31.394,18.125 c 7.496,4.329 17.082,1.76 21.41,-5.737 l 35.373,-61.268 c 4.325,-7.489 1.761,-17.082 -5.735,-21.409 z M 351.952,414.62 c -35.609,0 -64.579,-28.97 -64.579,-64.579 0,-35.609 28.97,-64.579 64.579,-64.579 35.609,0 64.579,28.97 64.579,64.579 0,35.609 -28.97,64.579 -64.579,64.579 z"
   id="path2"
   inkscape:connector-curvature="0" />
	</g>
</g>

<g
   id="g14"
   transform="translate(0,-188.09603)">
</g>
<g
   id="g16"
   transform="translate(0,-188.09603)">
</g>
<g
   id="g18"
   transform="translate(0,-188.09603)">
</g>
<g
   id="g20"
   transform="translate(0,-188.09603)">
</g>
<g
   id="g22"
   transform="translate(0,-188.09603)">
</g>
<g
   id="g24"
   transform="translate(0,-188.09603)">
</g>
<g
   id="g26"
   transform="translate(0,-188.09603)">
</g>
<g
   id="g28"
   transform="translate(0,-188.09603)">
</g>
<g
   id="g30"
   transform="translate(0,-188.09603)">
</g>
<g
   id="g32"
   transform="translate(0,-188.09603)">
</g>
<g
   id="g34"
   transform="translate(0,-188.09603)">
</g>
<g
   id="g36"
   transform="translate(0,-188.09603)">
</g>
<g
   id="g38"
   transform="translate(0,-188.09603)">
</g>
<g
   id="g40"
   transform="translate(0,-188.09603)">
</g>
<g
   id="g42"
   transform="translate(0,-188.09603)">
</g>
</svg>