<?xml version="1.0" encoding="UTF-8" standalone="no"?>
<!-- Generator: Adobe Illustrator 19.0.0, SVG Export Plug-In . SVG Version: 6.00 Build 0)  -->

<svg
   xmlns:dc="http://purl.org/dc/elements/1.1/"
   xmlns:cc="http://creativecommons.org/ns#"
   xmlns:rdf="http://www.w3.org/1999/02/22-rdf-syntax-ns#"
   xmlns:svg="http://www.w3.org/2000/svg"
   xmlns="http://www.w3.org/2000/svg"
   xmlns:sodipodi="http://sodipodi.sourceforge.net/DTD/sodipodi-0.dtd"
   xmlns:inkscape="http://www.inkscape.org/namespaces/inkscape"
   version="1.1"
   id="Capa_1"
   x="0px"
   y="0px"
   viewBox="0 0 469.333 469.333"
   style="enable-background:new 0 0 469.333 469.333;"
   xml:space="preserve"
   sodipodi:docname="pages.svg"
   inkscape:export-filename="C:\Users\user\Documents\others\1-CODE\inspirations\admin\BRAD-TRAVERSY\icons\png\pages.png"
   inkscape:export-xdpi="300"
   inkscape:export-ydpi="300"
   inkscape:version="0.92.3 (2405546, 2018-03-11)"><metadata
   id="metadata51"><rdf:RDF><cc:Work
       rdf:about=""><dc:format>image/svg+xml</dc:format><dc:type
         rdf:resource="http://purl.org/dc/dcmitype/StillImage" /></cc:Work></rdf:RDF></metadata><defs
   id="defs49" /><sodipodi:namedview
   pagecolor="#ffffff"
   bordercolor="#666666"
   borderopacity="1"
   objecttolerance="10"
   gridtolerance="10"
   guidetolerance="10"
   inkscape:pageopacity="0"
   inkscape:pageshadow="2"
   inkscape:window-width="1366"
   inkscape:window-height="706"
   id="namedview47"
   showgrid="false"
   inkscape:zoom="0.50284126"
   inkscape:cx="-427.57033"
   inkscape:cy="234.6665"
   inkscape:window-x="-8"
   inkscape:window-y="-8"
   inkscape:window-maximized="1"
   inkscape:current-layer="Capa_1" />
<g
   id="g14">
	<g
   id="g12">
		<g
   id="g10">
			<path
   d="M170.667,0h-128C19.135,0,0,19.135,0,42.667v128c0,23.531,19.135,42.667,42.667,42.667h128     c23.531,0,42.667-19.135,42.667-42.667v-128C213.333,19.135,194.198,0,170.667,0z"
   id="path2" />
			<path
   d="M426.667,0h-128C275.135,0,256,19.135,256,42.667v128c0,23.531,19.135,42.667,42.667,42.667h128     c23.531,0,42.667-19.135,42.667-42.667v-128C469.333,19.135,450.198,0,426.667,0z"
   id="path4" />
			<path
   d="M170.667,256h-128C19.135,256,0,275.135,0,298.667v128c0,23.531,19.135,42.667,42.667,42.667h128     c23.531,0,42.667-19.135,42.667-42.667v-128C213.333,275.135,194.198,256,170.667,256z"
   id="path6" />
			<path
   d="M416,341.333h-32v-32c0-5.896-4.771-10.667-10.667-10.667H352c-5.896,0-10.667,4.771-10.667,10.667v32h-32     c-5.896,0-10.667,4.771-10.667,10.667v21.333c0,5.896,4.771,10.667,10.667,10.667h32v32c0,5.896,4.771,10.667,10.667,10.667     h21.333c5.896,0,10.667-4.771,10.667-10.667v-32h32c5.896,0,10.667-4.771,10.667-10.667V352     C426.667,346.104,421.896,341.333,416,341.333z"
   id="path8" />
		</g>
	</g>
</g>
<g
   id="g16">
</g>
<g
   id="g18">
</g>
<g
   id="g20">
</g>
<g
   id="g22">
</g>
<g
   id="g24">
</g>
<g
   id="g26">
</g>
<g
   id="g28">
</g>
<g
   id="g30">
</g>
<g
   id="g32">
</g>
<g
   id="g34">
</g>
<g
   id="g36">
</g>
<g
   id="g38">
</g>
<g
   id="g40">
</g>
<g
   id="g42">
</g>
<g
   id="g44">
</g>
</svg>