<?xml version="1.0" encoding="UTF-8" standalone="no"?>
<svg
   xmlns:dc="http://purl.org/dc/elements/1.1/"
   xmlns:cc="http://creativecommons.org/ns#"
   xmlns:rdf="http://www.w3.org/1999/02/22-rdf-syntax-ns#"
   xmlns:svg="http://www.w3.org/2000/svg"
   xmlns="http://www.w3.org/2000/svg"
   xmlns:sodipodi="http://sodipodi.sourceforge.net/DTD/sodipodi-0.dtd"
   xmlns:inkscape="http://www.inkscape.org/namespaces/inkscape"
   height="492pt"
   viewBox="0 0 492.49284 492"
   width="492pt"
   version="1.1"
   id="svg6"
   sodipodi:docname="posts.svg"
   inkscape:export-filename="C:\Users\user\Documents\others\1-CODE\inspirations\admin\BRAD-TRAVERSY\icons\png\posts.png"
   inkscape:export-xdpi="300"
   inkscape:export-ydpi="300"
   inkscape:version="0.92.3 (2405546, 2018-03-11)">
  <metadata
     id="metadata12">
    <rdf:RDF>
      <cc:Work
         rdf:about="">
        <dc:format>image/svg+xml</dc:format>
        <dc:type
           rdf:resource="http://purl.org/dc/dcmitype/StillImage" />
      </cc:Work>
    </rdf:RDF>
  </metadata>
  <defs
     id="defs10" />
  <sodipodi:namedview
     pagecolor="#ffffff"
     bordercolor="#666666"
     borderopacity="1"
     objecttolerance="10"
     gridtolerance="10"
     guidetolerance="10"
     inkscape:pageopacity="0"
     inkscape:pageshadow="2"
     inkscape:window-width="1366"
     inkscape:window-height="706"
     id="namedview8"
     showgrid="false"
     inkscape:zoom="0.3597561"
     inkscape:cx="328"
     inkscape:cy="328"
     inkscape:window-x="-8"
     inkscape:window-y="-8"
     inkscape:window-maximized="1"
     inkscape:current-layer="svg6" />
  <path
     d="m304.140625 82.472656-270.976563 270.996094c-1.363281 1.367188-2.347656 3.09375-2.816406 4.949219l-30.035156 120.554687c-.898438 3.628906.167969 7.488282 2.816406 10.136719 2.003906 2.003906 4.734375 3.113281 7.527344 3.113281.855469 0 1.730469-.105468 2.582031-.320312l120.554688-30.039063c1.878906-.46875 3.585937-1.449219 4.949219-2.8125l271-270.976562zm0 0"
     id="path2" />
  <path
     d="m476.875 45.523438-30.164062-30.164063c-20.160157-20.160156-55.296876-20.140625-75.433594 0l-36.949219 36.949219 105.597656 105.597656 36.949219-36.949219c10.070312-10.066406 15.617188-23.464843 15.617188-37.714843s-5.546876-27.648438-15.617188-37.71875zm0 0"
     id="path4" />
</svg>
